<svg xmlns="http://www.w3.org/2000/svg" width="200.911" height="36.51" viewBox="0 0 200.911 36.51">
  <g id="Group_3" data-name="Group 3" transform="translate(-46.071 -21.066)">
    <g id="XMLID_49_" transform="translate(85.515 28.99)">
      <path id="XMLID_71_" d="M361.445,116.614a5.316,5.316,0,0,1-2.814.68,4.94,4.94,0,0,1-4.329-2.133,12.01,12.01,0,0,1,0-11.563,4.943,4.943,0,0,1,4.329-2.133,4.873,4.873,0,0,1,2.659.634,6.153,6.153,0,0,1,1.824,1.964l2.874-1.793a7.809,7.809,0,0,0-2.906-3.014,8.786,8.786,0,0,0-4.451-1.036,8.558,8.558,0,0,0-3.788.82,8.3,8.3,0,0,0-2.874,2.3,10.8,10.8,0,0,0-1.84,3.539,15.973,15.973,0,0,0,0,9.013,10.789,10.789,0,0,0,1.84,3.525,8.286,8.286,0,0,0,2.874,2.3,8.554,8.554,0,0,0,3.788.82,8.794,8.794,0,0,0,4.375-1.066,8.156,8.156,0,0,0,3.076-3.076l-2.69-1.793A6.071,6.071,0,0,1,361.445,116.614Z" transform="translate(-349.48 -97.665)"/>
      <path id="XMLID_70_" d="M526.536,99.606a5.631,5.631,0,0,0-2.365.5,4.062,4.062,0,0,0-1.716,1.406V93.64l-3.215,1.669v20.867h3.215v-9.469a4.792,4.792,0,0,1,.861-3.054,2.968,2.968,0,0,1,2.462-1.079,3.1,3.1,0,0,1,2.446.987,5.237,5.237,0,0,1,.877,3.454v9.161h3.215V106.87a8.556,8.556,0,0,0-1.468-5.441A5.213,5.213,0,0,0,526.536,99.606Z" transform="translate(-498.651 -93.64)"/>
      <path id="XMLID_69_" d="M662.262,94.4a2.058,2.058,0,0,0-2.072,2.072,1.958,1.958,0,0,0,.6,1.437,2,2,0,0,0,1.469.6,2.058,2.058,0,0,0,2.04-2.04A2,2,0,0,0,663.7,95,1.962,1.962,0,0,0,662.262,94.4Z" transform="translate(-622.506 -94.308)"/>
      <rect id="XMLID_68_" width="3.215" height="16.23" transform="translate(38.149 6.306)"/>
      <path id="XMLID_67_" d="M735.8,142.83a5.631,5.631,0,0,0-2.365.5,4.063,4.063,0,0,0-1.716,1.406V143.17H728.5V159.4h3.215v-9.469a4.793,4.793,0,0,1,.861-3.054,2.97,2.97,0,0,1,2.462-1.079,3.1,3.1,0,0,1,2.445.987,5.236,5.236,0,0,1,.878,3.454V159.4h3.215v-9.306a8.548,8.548,0,0,0-1.469-5.441A5.206,5.206,0,0,0,735.8,142.83Z" transform="translate(-682.53 -136.864)"/>
      <path id="XMLID_64_" d="M877.888,145.241a6.123,6.123,0,0,0-2.133-1.762,6.594,6.594,0,0,0-3.014-.649,7.341,7.341,0,0,0-2.891.557,6.082,6.082,0,0,0-2.241,1.623,7.67,7.67,0,0,0-1.453,2.643,11.54,11.54,0,0,0-.525,3.648,10.737,10.737,0,0,0,.557,3.586,7.941,7.941,0,0,0,1.515,2.659,6.338,6.338,0,0,0,2.241,1.639,6.72,6.72,0,0,0,2.7.557,8.224,8.224,0,0,0,3.184-.557,7.989,7.989,0,0,0,2.411-1.577l-1.886-2.04a6.9,6.9,0,0,1-1.654.958,4.992,4.992,0,0,1-1.87.341,3.9,3.9,0,0,1-1.421-.263,3.633,3.633,0,0,1-1.236-.8,4.365,4.365,0,0,1-.928-1.375,6.637,6.637,0,0,1-.494-2.01h10.728c.021-.165.04-.376.062-.633s.03-.53.03-.82a11.505,11.505,0,0,0-.417-3.123A7.64,7.64,0,0,0,877.888,145.241Zm-9.073,4.545a5.331,5.331,0,0,1,1.159-3.014,3.232,3.232,0,0,1,2.551-1.066,3.949,3.949,0,0,1,1.685.325,3.289,3.289,0,0,1,1.159.881,3.747,3.747,0,0,1,.695,1.3,7.039,7.039,0,0,1,.294,1.577Z" transform="translate(-803.029 -136.864)"/>
      <path id="XMLID_63_" d="M1011.9,151.594a7.448,7.448,0,0,0-1.716-1.082q-1.021-.478-2.381-1-.928-.371-1.5-.665a5.289,5.289,0,0,1-.912-.571,1.61,1.61,0,0,1-.463-.541,1.322,1.322,0,0,1-.124-.572,1.3,1.3,0,0,1,.525-1.066,2.75,2.75,0,0,1,1.7-.417,6.925,6.925,0,0,1,2.194.34,7.531,7.531,0,0,1,2.01,1.052l1.39-2.443a9.227,9.227,0,0,0-2.519-1.3,9.1,9.1,0,0,0-2.984-.495,8.445,8.445,0,0,0-2.227.278,5.151,5.151,0,0,0-1.761.834,3.747,3.747,0,0,0-1.145,1.391,4.366,4.366,0,0,0-.4,1.916,5.221,5.221,0,0,0,.247,1.685,3.463,3.463,0,0,0,.82,1.314,6.435,6.435,0,0,0,1.484,1.1,16.769,16.769,0,0,0,2.211,1,23.2,23.2,0,0,1,2.767,1.237,1.668,1.668,0,0,1,1,1.483q0,1.794-2.968,1.794a7.543,7.543,0,0,1-2.365-.4,9,9,0,0,1-2.365-1.206l-1.453,2.411a11.365,11.365,0,0,0,2.89,1.485,9.9,9.9,0,0,0,3.323.587,10.44,10.44,0,0,0,2.3-.247,5.7,5.7,0,0,0,1.931-.8,4.182,4.182,0,0,0,1.345-1.469,4.594,4.594,0,0,0,.509-2.272,5.018,5.018,0,0,0-.34-1.948A3.784,3.784,0,0,0,1011.9,151.594Z" transform="translate(-921.954 -136.864)"/>
      <path id="XMLID_60_" d="M1137.628,145.241a6.119,6.119,0,0,0-2.132-1.762,6.6,6.6,0,0,0-3.015-.649,7.33,7.33,0,0,0-2.89.557,6.073,6.073,0,0,0-2.241,1.623,7.667,7.667,0,0,0-1.453,2.643,11.535,11.535,0,0,0-.526,3.648,10.734,10.734,0,0,0,.557,3.586,7.94,7.94,0,0,0,1.515,2.659,6.315,6.315,0,0,0,2.241,1.639,6.718,6.718,0,0,0,2.7.557,8.227,8.227,0,0,0,3.185-.557,8,8,0,0,0,2.411-1.577l-1.886-2.04a6.92,6.92,0,0,1-1.654.958,4.989,4.989,0,0,1-1.87.341,3.894,3.894,0,0,1-1.421-.263,3.64,3.64,0,0,1-1.237-.8,4.368,4.368,0,0,1-.928-1.375,6.673,6.673,0,0,1-.495-2.01h10.728q.031-.247.062-.633t.03-.82a11.453,11.453,0,0,0-.417-3.123A7.637,7.637,0,0,0,1137.628,145.241Zm-9.073,4.545a5.323,5.323,0,0,1,1.159-3.014,3.234,3.234,0,0,1,2.551-1.066,3.949,3.949,0,0,1,1.685.325,3.285,3.285,0,0,1,1.158.881,3.75,3.75,0,0,1,.7,1.3,7.043,7.043,0,0,1,.293,1.577Z" transform="translate(-1031.266 -136.864)"/>
      <path id="XMLID_57_" d="M1289.035,102.736a6.135,6.135,0,0,0-2.211-1.283,8.6,8.6,0,0,0-2.766-.433H1275v21.641h3.215v-8.069h5.645a9.146,9.146,0,0,0,2.883-.433,6.274,6.274,0,0,0,2.267-1.3,5.848,5.848,0,0,0,1.48-2.133,8.475,8.475,0,0,0,0-5.874A5.939,5.939,0,0,0,1289.035,102.736Zm-2.255,7.806a3.617,3.617,0,0,1-2.773.99h-5.794v-7.451h5.794a3.743,3.743,0,0,1,2.7.958,3.633,3.633,0,0,1,1,2.752A3.872,3.872,0,0,1,1286.78,110.542Z" transform="translate(-1162.748 -100.125)"/>
      <path id="XMLID_53_" d="M1436.781,145.117a6.868,6.868,0,0,0-5.178-2.287,7.1,7.1,0,0,0-2.86.571,6.494,6.494,0,0,0-2.287,1.67,7.977,7.977,0,0,0-1.529,2.674,10.637,10.637,0,0,0-.557,3.555,10.417,10.417,0,0,0,.542,3.463,8.135,8.135,0,0,0,1.5,2.659,6.56,6.56,0,0,0,5.1,2.319,7.273,7.273,0,0,0,2.9-.571,6.607,6.607,0,0,0,2.319-1.67,7.794,7.794,0,0,0,1.546-2.69,10.871,10.871,0,0,0,.557-3.6,10.448,10.448,0,0,0-.542-3.447A7.658,7.658,0,0,0,1436.781,145.117Zm-1.437,8.285a5.391,5.391,0,0,1-.8,1.716,4.118,4.118,0,0,1-1.267,1.159,3.189,3.189,0,0,1-1.639.433,3.562,3.562,0,0,1-2.936-1.407,6.485,6.485,0,0,1-1.114-4.1,6.592,6.592,0,0,1,1.036-3.88,3.309,3.309,0,0,1,2.86-1.469,3.589,3.589,0,0,1,3.045,1.469,6.491,6.491,0,0,1,1.1,3.972A7.816,7.816,0,0,1,1435.344,153.4Z" transform="translate(-1294.002 -136.864)"/>
      <path id="XMLID_50_" d="M1578.859,101.48a6.228,6.228,0,0,0-1.761-1.312,4.962,4.962,0,0,0-2.319-.563,6.118,6.118,0,0,0-2.427.495,5.56,5.56,0,0,0-2.04,1.515,7.647,7.647,0,0,0-1.407,2.566,11.244,11.244,0,0,0-.525,3.617,14.378,14.378,0,0,0,.479,3.973,7.6,7.6,0,0,0,1.329,2.7,5.225,5.225,0,0,0,1.994,1.546,6.086,6.086,0,0,0,2.443.495,4.824,4.824,0,0,0,2.318-.547,9.531,9.531,0,0,0,1.916-1.36v1.566h3.153V93.64l-3.153,1.642Zm.03,10.008a6.445,6.445,0,0,1-1.569,1.43,3.722,3.722,0,0,1-2.092.629,3.057,3.057,0,0,1-2.694-1.384,8.142,8.142,0,0,1-.939-4.457,6.77,6.77,0,0,1,.893-3.858,2.993,2.993,0,0,1,2.617-1.276,3.458,3.458,0,0,1,1.155.2,5.356,5.356,0,0,1,1.063.507,5.964,5.964,0,0,1,.893.677,5.575,5.575,0,0,1,.678.737v6.794Z" transform="translate(-1420.546 -93.64)"/>
    </g>
    <g id="Group_2" data-name="Group 2" transform="translate(46.071 21.066)">
      <g id="Group_1" data-name="Group 1" transform="translate(0 0)">
        <path id="XMLID_2_" d="M122.27,37.19a4.44,4.44,0,1,0-4.44-4.44A4.44,4.44,0,0,0,122.27,37.19Z" transform="translate(-106.482 -28.31)" fill="#e1001e"/>
        <path id="Path_1" data-name="Path 1" d="M55.728,69.106a.375.375,0,0,0-.53,0c-.357.364-5.2,6.635-15.212,5.814-5.909-.485-13.174-4.312-15.111-5.836a.374.374,0,0,0-.5.552s7.753,7.252,7.753,14.863c0,8.162-6.4,13.762-7.767,15.452a.372.372,0,0,0,.454.576C40.045,92.682,47.93,84.776,55.793,69.545A.373.373,0,0,0,55.728,69.106Z" transform="translate(-24.263 -64.062)"/>
      </g>
      <path id="Path_2" data-name="Path 2" d="M172.737,218.4a41.015,41.015,0,0,0-8.194-14.777,60.2,60.2,0,0,1-7.233,7.246c4.965.332,11.132,2.473,14.752,7.83h0a.309.309,0,0,0,.049.058.374.374,0,0,0,.627-.357Z" transform="translate(-141.173 -182.358)" fill="#e1001e"/>
    </g>
  </g>
</svg>
